<svg width="35" height="26" viewBox="0 0 35 26" fill="none" xmlns="http://www.w3.org/2000/svg">
<path d="M35 17.0434H22.838C22.5773 17.0434 22.3615 17.2391 22.3293 17.4918C22.3279 17.5162 22.3265 17.5405 22.3251 17.5652C22.3217 17.6154 22.318 17.6658 22.3138 17.716C22.1442 19.8137 21.2021 21.7642 19.6182 23.2677C18.4026 24.4216 16.9099 25.2168 15.2825 25.5965C14.8669 25.6751 14.4444 25.7335 14.0158 25.7702C13.6705 25.8004 13.321 25.8166 12.9685 25.8183C12.9455 25.8183 12.9222 25.8183 12.8993 25.8183C12.5046 25.8183 12.1137 25.8004 11.7279 25.7651C12.1359 25.82 12.5501 25.8492 12.9692 25.8523C12.9459 25.8523 12.9226 25.8523 12.8993 25.8523C11.1578 25.8523 9.46871 25.5107 7.87831 24.8367C6.34239 24.1854 4.9627 23.2536 3.77796 22.0663C2.59356 20.8791 1.66337 19.4968 1.01378 17.9577C0.340897 16.3646 0 14.6716 0 12.9265C0 11.1813 0.340897 9.48869 1.01378 7.89494C1.66337 6.35578 2.59356 4.97352 3.77796 3.78627C4.9627 2.59903 6.34239 1.66722 7.87831 1.01592C9.46871 0.34196 11.1578 0 12.8993 0C14.6407 0 16.3298 0.34196 17.9202 1.01592C19.1944 1.55633 20.3613 2.28969 21.3984 3.20227C21.4073 3.20982 21.4162 3.21772 21.4251 3.22561C21.6286 3.40552 21.8273 3.59263 22.0206 3.78627C22.5163 4.28308 22.9672 4.81387 23.3715 5.37625C23.3783 5.38552 23.3852 5.39513 23.3917 5.4044L23.3571 5.42603L20.2119 7.40706L20.1784 7.42801C20.1715 7.41874 20.1646 7.40981 20.1575 7.40054C19.5599 6.61396 18.8381 5.92695 18.0213 5.36972C18.011 5.36251 18.0007 5.35565 17.9904 5.34878C16.5354 4.36376 14.7833 3.78833 12.8993 3.78833C7.87112 3.78833 3.78002 7.88773 3.78002 12.9265C3.78002 13.6193 3.85745 14.2943 4.00408 14.9432C3.99723 14.9697 3.99072 14.9957 3.98455 15.0222C3.99038 15.0486 3.99654 15.0751 4.00305 15.1012C4.00922 15.0747 4.01539 15.0486 4.02224 15.0222C4.82223 18.4274 7.52885 21.104 10.9464 21.8542C11.1389 21.8964 11.3335 21.9324 11.5302 21.9623C11.9245 22.0221 12.3271 22.0564 12.7365 22.0633C15.5514 22.0032 17.9175 19.8954 18.6479 17.0434C18.651 17.0321 18.6537 17.0204 18.6568 17.0091C18.8007 16.4353 18.8785 15.8321 18.8809 15.2096C18.8809 15.0998 18.8905 14.9923 18.9093 14.8879C19.0409 14.1446 19.6213 13.5551 20.3586 13.4106C20.4727 13.3879 20.5905 13.3762 20.7108 13.3762H29.1475L29.2024 13.4106L34.9452 17.0091L35 17.0434Z" fill="#7921D1"/>
<path d="M16.592 9.33696C16.592 9.42692 16.57 9.51172 16.531 9.58622C16.5125 9.61609 16.4936 9.64562 16.4738 9.67446C16.4734 9.67514 16.4731 9.67583 16.4724 9.67652C15.9941 10.3824 15.1866 10.8459 14.2708 10.8459C13.9724 10.8459 13.6856 10.7968 13.418 10.7058H13.4177C13.3927 10.6966 13.3677 10.6876 13.3427 10.679C13.0514 10.5802 12.7393 10.528 12.4145 10.5304C10.9022 10.5424 9.65514 11.7688 9.61643 13.2836C9.60786 13.6166 9.65686 13.9369 9.75381 14.2353C9.80863 14.4035 9.58731 14.5227 9.47664 14.3846C8.86988 13.6272 8.50671 12.6652 8.50671 11.6184C8.50671 9.58588 9.87544 7.87368 11.7396 7.35696C12.1147 7.25293 12.5101 7.19731 12.9185 7.19731C14.3701 7.19731 15.658 7.90011 16.4621 8.98436C16.4782 9.00633 16.4943 9.0283 16.5104 9.05062C16.5622 9.13336 16.592 9.23156 16.592 9.33662V9.33696Z" fill="#7921D1"/>
<path d="M23.9502 6.66992C23.9502 6.66992 23.9498 6.66992 23.9498 6.67074C23.9502 6.67033 23.9502 6.66992 23.9506 6.66992H23.9502Z" fill="#7921D1"/>
<path d="M28.0012 7.8115C27.9909 7.78026 27.9724 7.75382 27.9481 7.73322C27.9467 7.73219 27.9454 7.73116 27.944 7.73013L27.9293 7.71983L27.7566 7.60104L27.7244 7.57906L26.6393 6.83232L26.6047 6.80897L26.5557 6.77532L26.527 6.75541L25.4563 6.01862L25.4368 6.00523L25.4231 5.99733C25.4022 6.00763 25.4111 6.00351 25.3905 6.01484C25.2069 6.11647 25.0452 6.25311 24.9143 6.41585C24.9071 6.42478 24.8999 6.43405 24.8931 6.44332C24.9009 6.45156 24.9088 6.4598 24.9174 6.46804C25.1274 6.68056 25.3967 6.83472 25.6979 6.90304C25.6992 6.90339 25.7009 6.90373 25.7023 6.90407C25.7273 6.90991 25.753 6.91506 25.7787 6.91918C25.7917 6.92193 25.8047 6.92399 25.8181 6.9257C25.8736 6.94356 25.9137 6.99609 25.9137 7.05754C25.9137 7.11488 25.8791 7.16398 25.8298 7.18492C25.8287 7.18526 25.828 7.18561 25.8274 7.18595C25.8181 7.1887 25.8085 7.19144 25.7989 7.19384C25.7705 7.20174 25.7414 7.20895 25.7119 7.21513C25.7102 7.21547 25.7085 7.21582 25.7068 7.21616C25.6036 7.23779 25.4964 7.24912 25.3868 7.24912C25.1158 7.24912 24.8605 7.17977 24.6375 7.05789C24.6272 7.05239 24.6166 7.04621 24.6063 7.04038C24.4511 6.95077 24.3127 6.83575 24.1969 6.70048C24.1917 6.69361 24.1863 6.68709 24.1804 6.68056C24.1801 6.68056 24.1797 6.67988 24.1797 6.67988C24.1585 6.65928 24.1325 6.64383 24.103 6.63593C24.1023 6.63593 24.102 6.63559 24.1013 6.63559C24.0955 6.63387 24.0896 6.63284 24.0838 6.63215C24.0759 6.63078 24.0674 6.63009 24.0591 6.63009C24.0389 6.63009 24.0194 6.63353 24.0012 6.64039C23.9827 6.64692 23.9656 6.65687 23.9509 6.66923C23.9509 6.66923 23.9508 6.66946 23.9505 6.66992C23.9505 6.66992 23.9502 6.67026 23.9499 6.67061C23.9499 6.67061 23.9492 6.67061 23.9488 6.67129L14.6453 12.0537C14.6435 12.0544 14.6422 12.0551 14.6405 12.0558C14.6113 12.0685 14.5836 12.0843 14.5586 12.1028C14.5586 12.1032 14.5582 12.1032 14.5582 12.1032C14.5243 12.1289 14.4945 12.1595 14.4702 12.1948C14.4239 12.2601 14.3969 12.3401 14.3969 12.4259C14.3969 12.4815 14.4085 12.5351 14.4291 12.5835C14.4311 12.5883 14.4332 12.5931 14.4356 12.5979C14.4373 12.6017 14.439 12.6051 14.4407 12.6085C14.4414 12.6099 14.4421 12.6116 14.4428 12.613C14.4472 12.6216 14.4524 12.6302 14.4575 12.6384C14.4585 12.6401 14.4596 12.6415 14.4606 12.6432C14.4626 12.6463 14.4647 12.6497 14.4671 12.6528C14.4925 12.6748 14.5147 12.6999 14.5332 12.728C14.5706 12.785 14.5922 12.8533 14.5922 12.9265C14.5922 13.0549 14.5253 13.1678 14.425 13.232L14.3441 13.2708L14.3092 13.2877C14.3092 13.2877 14.3078 13.2883 14.3074 13.2883C14.2835 13.2973 14.2608 13.3083 14.2396 13.321C14.2389 13.321 14.2386 13.3216 14.2382 13.322C14.2372 13.3223 14.2365 13.3227 14.2358 13.3234C14.1988 13.346 14.1659 13.3749 14.1382 13.4082C14.0813 13.4772 14.0471 13.5654 14.0471 13.6615C14.0471 13.6777 14.0481 13.6938 14.0501 13.7093C14.0632 13.8191 14.1214 13.9156 14.2053 13.9791C14.2718 14.0293 14.354 14.0591 14.4435 14.0591C14.4674 14.0591 14.4907 14.0571 14.5133 14.0529C14.538 14.0485 14.562 14.0416 14.585 14.033L14.6415 14.0059L16.0904 13.31L16.2055 13.2547C16.2298 13.2392 16.2559 13.2269 16.2833 13.2173C16.3223 13.2035 16.3648 13.196 16.4087 13.196C16.5334 13.196 16.6444 13.2561 16.7143 13.3488L16.7807 13.4878L16.8263 13.5826L16.9383 13.8171C16.9503 13.8562 16.9678 13.8926 16.9904 13.9256C17.0004 13.9403 17.011 13.9544 17.023 13.9675C17.0956 14.0485 17.2008 14.0996 17.318 14.0996C17.3241 14.0996 17.3303 14.0996 17.3365 14.099C17.3704 14.0976 17.4033 14.0917 17.4344 14.0821C17.4917 14.0643 17.5437 14.0341 17.5869 13.9939L26.1707 9.02793L26.2323 8.99188L27.4856 8.2671L27.5476 8.23105L27.9217 8.01441C27.9234 8.01372 27.9252 8.01269 27.9272 8.01132C27.9574 7.99347 27.9817 7.96566 27.9957 7.9327C27.9957 7.93235 27.9961 7.93201 27.9961 7.93167C28.0046 7.91141 28.0098 7.88909 28.0098 7.8654C28.0098 7.84652 28.0067 7.82832 28.0012 7.8115ZM14.4613 12.6041C14.4596 12.6027 14.4582 12.6017 14.4565 12.6007L14.4719 12.5931C14.4719 12.5931 14.4736 12.5962 14.4743 12.5979L14.4613 12.6041ZM14.5353 14.019L14.5329 14.0138C14.5469 14.01 14.5603 14.0056 14.5736 14.0004L14.5353 14.019ZM17.0284 13.9266L17.0192 13.9074C17.0233 13.9132 17.0274 13.919 17.0322 13.9249L17.0284 13.9266ZM25.8041 7.22818C25.8164 7.22509 25.8287 7.22131 25.8407 7.21788C25.8291 7.22303 25.8167 7.22646 25.8041 7.22818Z" fill="#7921D1"/>
</svg>
