<svg width="17" height="17" viewBox="0 0 17 17" fill="none" xmlns="http://www.w3.org/2000/svg">
<path d="M0.338903 10.9449C1.39017 14.4478 4.64212 17 8.49088 17C13.1903 17 17 13.1943 17 8.5C17 3.80559 13.1903 0 8.49088 0C3.98133 0 0.291428 3.50426 0 7.9353C0 9.20835 0 9.7396 0.338903 10.9449Z" fill="url(#paint0_linear_5_5)"/>
<path d="M7.92527 6.63486L5.87806 9.61871C5.39546 9.59671 4.90963 9.73377 4.50635 9.99986L0.010939 8.1431C0.010939 8.1431 -0.0930821 9.8601 0.340416 11.1397L3.51843 12.4554C3.67799 13.1709 4.16718 13.7985 4.88891 14.1004C6.0697 14.5954 7.43121 14.0312 7.92241 12.8459C8.05027 12.5361 8.10987 12.2112 8.10121 11.8869L11.1023 9.78803C12.8553 9.78803 14.28 8.35421 14.28 6.59337C14.28 4.83244 12.8553 3.3999 11.1023 3.3999C9.40915 3.3999 7.83038 4.88312 7.92527 6.63486ZM7.43336 12.6399C7.05317 13.5556 6.00431 13.9901 5.09255 13.6089C4.67195 13.4332 4.3544 13.1111 4.1712 12.727L5.20566 13.1572C5.87806 13.4382 6.64946 13.1183 6.92896 12.4439C7.20934 11.7687 6.89127 10.9935 6.21924 10.7125L5.14989 10.2679C5.56249 10.1108 6.0316 10.1051 6.46989 10.2881C6.9117 10.4725 7.25455 10.8198 7.43622 11.2636C7.61795 11.7075 7.61723 12.1974 7.43336 12.6399ZM11.1023 8.72169C9.93534 8.72169 8.98525 7.76698 8.98525 6.59337C8.98525 5.42072 9.93534 4.46577 11.1023 4.46577C12.27 4.46577 13.22 5.42072 13.22 6.59337C13.22 7.76698 12.27 8.72169 11.1023 8.72169ZM9.51592 6.59014C9.51592 5.70732 10.2283 4.99124 11.1059 4.99124C11.9842 4.99124 12.6965 5.70732 12.6965 6.59014C12.6965 7.47307 11.9842 8.18848 11.1059 8.18848C10.2283 8.18848 9.51592 7.47307 9.51592 6.59014Z" fill="white"/>
<defs>
<linearGradient id="paint0_linear_5_5" x1="8.49999" y1="0" x2="8.49999" y2="17" gradientUnits="userSpaceOnUse">
<stop stop-color="#111D2E"/>
<stop offset="0.21248" stop-color="#051839"/>
<stop offset="0.40695" stop-color="#0A1B48"/>
<stop offset="0.5811" stop-color="#132E62"/>
<stop offset="0.7376" stop-color="#144B7E"/>
<stop offset="0.87279" stop-color="#136497"/>
<stop offset="1" stop-color="#1387B8"/>
</linearGradient>
</defs>
</svg>
